<?xml version="1.0" standalone="no"?>
<!DOCTYPE svg PUBLIC "-//W3C//DTD SVG 20010904//EN"
 "http://www.w3.org/TR/2001/REC-SVG-20010904/DTD/svg10.dtd">
<svg version="1.0" xmlns="http://www.w3.org/2000/svg"
 width="448.000000pt" height="426.000000pt" viewBox="0 0 448.000000 426.000000"
 preserveAspectRatio="xMidYMid meet">

<g transform="translate(0.000000,426.000000) scale(0.100000,-0.100000)"
fill="#000000" stroke="none">
<path d="M40 2120 l0 -2080 945 0 945 0 0 411 0 411 37 -7 c292 -55 493 -346
493 -717 l0 -98 1001 0 1001 0 -6 27 c-3 16 -15 84 -27 153 -66 393 -189 730
-396 1089 -140 243 -399 554 -618 742 l-86 74 63 55 c561 487 918 1119 1038
1840 11 69 23 137 26 153 l6 27 -1000 0 -999 0 -6 -152 c-6 -180 -27 -271 -90
-393 -73 -142 -213 -257 -357 -295 -25 -6 -53 -13 -62 -16 -17 -5 -18 20 -18
425 l0 431 -945 0 -945 0 0 -2080z m1740 1504 l0 -437 78 7 c353 31 586 211
698 539 26 76 54 226 54 290 l0 37 835 0 c559 0 835 -3 835 -10 0 -36 -91
-405 -102 -415 -2 -2 -77 -8 -168 -14 -691 -47 -1324 -298 -1844 -730 l-89
-74 -116 58 c-491 243 -938 607 -1296 1055 -42 52 -80 103 -86 113 -9 16 22
17 596 17 l605 0 0 -436z m-44 -968 c657 -85 1222 -353 1683 -800 139 -136
351 -385 351 -414 0 -25 -338 -126 -541 -162 -175 -31 -548 -39 -739 -16 -384
47 -786 192 -1093 395 l-109 72 -111 -74 c-384 -254 -688 -578 -916 -976 l-71
-125 0 941 0 940 109 42 c162 63 319 109 481 141 126 25 197 35 385 54 84 8
455 -3 571 -18z"/>
</g>
</svg>
